<?xml version="1.0" standalone="no"?>
<!DOCTYPE svg PUBLIC "-//W3C//DTD SVG 20010904//EN"
 "http://www.w3.org/TR/2001/REC-SVG-20010904/DTD/svg10.dtd">
<svg version="1.0" xmlns="http://www.w3.org/2000/svg"
 width="512.000000pt" height="512.000000pt" viewBox="0 0 512.000000 512.000000"
 preserveAspectRatio="xMidYMid meet">
<metadata>
Created by potrace 1.11, written by Peter Selinger 2001-2013
</metadata>
<g transform="translate(0.000000,512.000000) scale(0.100000,-0.100000)"
fill="#000000" stroke="none">
<path d="M2064 3606 c-28 -17 -59 -54 -102 -119 -63 -97 -105 -138 -180 -176
-49 -25 -81 -28 -438 -40 -222 -8 -232 -9 -292 -36 -68 -30 -125 -85 -149
-144 -23 -54 -22 -192 2 -265 15 -47 32 -74 79 -122 75 -76 138 -108 280 -144
182 -45 293 -54 611 -47 l283 6 6 -37 c3 -20 13 -92 21 -158 17 -132 42 -225
82 -292 14 -24 27 -67 30 -96 5 -53 5 -54 -66 -156 -39 -57 -71 -111 -71 -121
0 -12 -33 -30 -128 -67 -70 -28 -188 -79 -262 -114 -194 -90 -809 -402 -1158
-587 -95 -50 -175 -91 -178 -91 -3 0 -33 -16 -67 -36 -34 -20 -100 -52 -147
-71 -47 -20 -115 -51 -152 -69 l-67 -34 -1 -295 0 -295 2560 0 2560 0 0 1375
c0 1093 -3 1375 -12 1375 -9 0 -9 3 -3 8 19 13 16 60 -3 65 -16 4 -16 5 1 6
13 1 17 10 17 42 0 48 13 50 -174 -28 -72 -31 -153 -64 -181 -75 -27 -11 -138
-61 -245 -113 -107 -51 -294 -132 -415 -180 -121 -48 -302 -120 -402 -161
-100 -41 -185 -74 -187 -74 -3 0 7 20 21 45 48 87 21 239 -54 305 -34 30 -40
32 -94 28 -39 -3 -65 -11 -79 -23 -21 -19 -22 -19 -40 5 -53 71 -123 360 -170
710 -18 126 -38 199 -68 238 -26 34 -26 34 -92 29 -41 -3 -92 -16 -140 -37
-158 -66 -182 -73 -270 -74 -76 -1 -92 3 -152 31 -37 18 -97 53 -133 78 -82
59 -124 66 -181 31z m151 -91 c151 -122 332 -146 525 -70 52 20 121 46 153 58
l58 20 25 -25 c27 -26 39 -82 84 -363 50 -320 95 -481 161 -579 73 -110 110
-196 110 -262 1 -31 -1 -57 -3 -60 -3 -2 -30 8 -60 23 -67 34 -96 82 -179 293
-32 80 -64 149 -72 154 -18 11 -47 -8 -47 -30 0 -19 93 -240 140 -335 22 -42
37 -79 34 -82 -3 -2 -15 -46 -28 -97 l-22 -94 -90 -48 c-49 -26 -92 -48 -95
-48 -4 0 -9 9 -12 20 -4 15 -14 20 -41 20 -57 0 -84 -18 -113 -78 l-27 -55
-65 6 c-130 11 -246 72 -309 161 -55 79 -90 218 -108 431 -4 44 -11 86 -17 93
-8 10 -82 12 -346 11 -317 -2 -494 8 -531 31 -8 5 -3 24 19 66 48 95 55 136
55 299 0 115 -4 160 -16 191 l-16 41 161 7 c292 11 339 33 451 201 83 125 124
162 160 143 12 -6 39 -25 61 -43z m-1205 -409 c0 -17 -14 -29 -23 -20 -8 8 3
34 14 34 5 0 9 -6 9 -14z m-40 -181 c0 -14 -4 -25 -10 -25 -11 0 -14 33 -3 43
11 11 13 8 13 -18z m340 -90 c-7 -9 -15 -13 -17 -11 -7 7 7 26 19 26 6 0 6 -6
-2 -15z m3723 -52 c-5 -13 -2 -15 15 -11 15 4 19 2 15 -9 -3 -8 -11 -12 -18
-9 -7 2 -16 2 -20 -2 -10 -10 -65 -11 -65 -1 0 5 17 9 38 10 20 0 31 3 24 6
-10 4 -10 8 -1 19 15 19 20 18 12 -3z m-58 -52 c14 -6 8 -8 -22 -7 -23 0 -36
4 -30 8 15 9 26 9 52 -1z m-112 -8 c-7 -2 -13 -14 -13 -26 0 -18 -2 -19 -10
-7 -9 15 -11 12 -25 -37 -3 -9 -10 -9 -28 0 l-25 12 26 11 c15 7 35 21 44 33
10 11 23 21 30 20 10 0 10 -2 1 -6z m31 -18 c-4 -8 -10 -12 -15 -9 -11 6 -2
24 11 24 5 0 7 -7 4 -15z m-140 -57 c16 -11 -6 -10 -23 1 -8 5 -10 14 -5 22 6
10 9 10 12 -1 3 -8 10 -18 16 -22z m126 28 c0 -2 -12 -11 -27 -20 l-28 -17 24
20 c23 21 31 25 31 17z m-240 -66 c0 -5 -2 -10 -4 -10 -3 0 -8 5 -11 10 -3 6
-1 10 4 10 6 0 11 -4 11 -10z m-35 -23 c13 4 16 3 11 -6 -5 -7 -21 -10 -44 -6
-28 4 -32 3 -17 -4 17 -8 17 -10 3 -10 -24 -1 -31 16 -11 28 11 6 22 6 29 0 6
-5 20 -6 29 -2z m-1162 -45 c29 -32 47 -90 47 -152 0 -55 -3 -65 -29 -91 -43
-42 -61 -38 -61 12 0 25 -14 73 -35 121 -35 81 -35 108 -3 121 28 11 66 6 81
-11z m1032 -12 c3 -5 2 -17 -2 -25 -8 -13 -11 -13 -32 1 -18 13 -20 18 -10 25
19 12 36 11 44 -1z m-70 -20 c-3 -5 -12 -10 -18 -10 -7 0 -6 4 3 10 19 12 23
12 15 0z m-45 -20 c-8 -5 -19 -10 -25 -10 -5 0 -3 5 5 10 8 5 20 10 25 10 6 0
3 -5 -5 -10z m-84 -68 c-3 -2 -22 -8 -43 -13 -40 -9 -84 -2 -64 10 11 7 114
10 107 3z m-166 -36 c-8 -7 -28 -16 -45 -20 -30 -6 -30 -6 5 13 42 23 60 26
40 7z m40 4 c0 -5 -2 -10 -4 -10 -3 0 -8 5 -11 10 -3 6 -1 10 4 10 6 0 11 -4
11 -10z m-15 -30 c-3 -5 -13 -10 -21 -10 -8 0 -12 5 -9 10 3 6 13 10 21 10 8
0 12 -4 9 -10z m-66 -13 c16 1 20 -2 11 -7 -10 -6 -9 -9 6 -13 10 -2 8 -2 -6
0 -14 3 -38 5 -55 5 -16 1 -24 3 -17 5 6 3 9 10 5 16 -4 7 0 8 13 2 10 -4 30
-8 43 -8z m-119 -17 c-8 -5 -19 -10 -25 -10 -5 0 -3 5 5 10 8 5 20 10 25 10 6
0 3 -5 -5 -10z m-62 -58 c-16 -9 -28 -20 -28 -24 0 -13 -20 -9 -36 6 -8 8 -10
17 -5 20 5 4 11 0 14 -6 3 -10 11 -9 33 4 16 10 34 17 39 17 6 0 -2 -7 -17
-17z m-92 -30 c-10 -2 -22 0 -28 6 -6 6 0 7 19 4 21 -5 23 -7 9 -10z m-96 -22
c-8 -5 -19 -10 -25 -10 -5 0 -3 5 5 10 8 5 20 10 25 10 6 0 3 -5 -5 -10z m-45
-10 c-3 -5 -12 -10 -18 -10 -7 0 -6 4 3 10 19 12 23 12 15 0z m-35 -14 c0 -2
-7 -7 -16 -10 -8 -3 -12 -2 -9 4 6 10 25 14 25 6z m75 -6 c3 -5 -1 -10 -10
-10 -9 0 -13 5 -10 10 3 6 8 10 10 10 2 0 7 -4 10 -10z m42 4 c-3 -3 -12 -4
-19 -1 -8 3 -5 6 6 6 11 1 17 -2 13 -5z m-83 -23 c-5 -5 -18 -5 -29 0 -18 9
-18 9 3 5 12 -2 22 1 22 7 0 6 3 7 7 4 4 -4 2 -11 -3 -16z m133 3 c3 -8 -11
-11 -39 -11 -24 0 -33 2 -20 4 12 3 22 9 22 14 0 14 32 7 37 -7z m-192 -12
c-3 -3 -11 0 -18 7 -9 10 -8 11 6 5 10 -3 15 -9 12 -12z m-385 -7 c16 -19 7
-41 -20 -48 -19 -5 -21 -2 -16 16 3 12 6 28 6 35 0 16 15 15 30 -3z m268 -20
c-9 -9 -141 -56 -145 -51 -2 2 27 15 64 29 67 26 91 32 81 22z m-168 -65 c-8
-5 -22 -9 -30 -9 -10 0 -8 3 5 9 27 12 43 12 25 0z m-71 -39 c10 -7 7 -9 -12
-8 -14 1 -23 5 -20 10 6 9 15 9 32 -2z m61 -1 c13 -8 13 -10 -2 -10 -9 0 -20
5 -23 10 -8 13 5 13 25 0z m-154 -21 c-13 -8 -15 -13 -6 -19 7 -4 0 -10 -20
-13 -20 -5 -29 -11 -24 -18 5 -8 3 -9 -5 -5 -9 6 -3 17 20 37 18 16 37 29 43
29 6 0 3 -5 -8 -11z m-76 -47 c0 -5 -12 -14 -27 -21 l-28 -12 25 21 c29 22 30
23 30 12z m85 -12 c-3 -5 -10 -10 -16 -10 -5 0 -9 5 -9 10 0 6 7 10 16 10 8 0
12 -4 9 -10z m-65 -25 c0 -2 -9 -3 -19 -2 -11 0 -18 5 -15 9 4 6 34 0 34 -7z
m-118 -13 c-20 -10 -31 -21 -27 -29 2 -8 0 -11 -5 -8 -6 3 -10 10 -10 15 0 10
49 39 65 39 6 0 -5 -8 -23 -17z m-549 -28 c23 -15 44 -28 46 -30 2 -2 -6 -14
-16 -28 l-20 -25 -32 32 c-17 18 -31 43 -31 55 0 28 1 28 53 -4z m612 4 c-1
-12 -7 -23 -14 -24 -6 -1 -7 0 -1 3 5 2 8 9 4 14 -3 5 -2 14 1 19 9 15 12 12
10 -12z m-45 2 c0 -5 -4 -10 -10 -10 -5 0 -10 5 -10 10 0 6 5 10 10 10 6 0 10
-4 10 -10z m-88 -8 c-8 -6 -1 -12 23 -19 20 -7 37 -7 41 -2 3 5 11 9 17 9 7 0
3 -6 -8 -12 -24 -14 -66 -17 -58 -4 4 5 -1 7 -10 3 -10 -4 -17 -2 -17 4 0 6
-8 8 -17 5 -15 -5 -15 -4 1 9 11 8 25 15 30 15 6 0 5 -4 -2 -8z m-52 -25 c0
-1 -9 -10 -20 -20 -16 -13 -20 -14 -20 -3 0 8 8 17 18 19 9 3 18 5 20 6 1 0 2
0 2 -2z m-35 -151 c8 -49 15 -99 14 -110 -2 -33 -38 175 -37 214 1 25 2 28 5
10 2 -14 10 -65 18 -114z m-245 119 c0 -2 -9 -9 -20 -15 -16 -9 -18 -8 -14 5
5 13 34 22 34 10z m164 -234 c-2 -2 -4 2 -4 9 0 11 -3 11 -12 2 -7 -7 -16 -12
-21 -12 -5 0 -1 7 8 16 10 11 14 25 10 38 -3 12 -7 46 -9 76 -3 46 -1 39 14
-35 10 -49 16 -92 14 -94z m-349 159 c3 -5 -1 -10 -9 -10 -9 0 -16 5 -16 10 0
6 4 10 9 10 6 0 13 -4 16 -10z m239 -5 c-10 -8 -29 -15 -41 -15 -16 0 -21 -4
-16 -16 4 -11 9 -12 16 -5 6 6 20 11 32 10 18 0 17 -2 -5 -11 l-25 -11 25 -7
c21 -7 19 -8 -12 -7 -20 1 -35 4 -33 7 2 3 -14 6 -36 6 -33 1 -40 -2 -45 -22
-4 -14 -3 -46 1 -72 4 -26 9 -56 10 -68 4 -30 46 -124 54 -120 4 3 7 -8 6 -22
0 -19 5 -26 15 -24 13 3 13 1 1 -10 -11 -10 -14 -10 -18 0 -3 6 -8 10 -13 7
-4 -3 -6 3 -3 14 2 10 -8 42 -22 70 -30 56 -53 179 -42 223 7 28 32 43 112 72
54 18 63 19 39 1z m-330 -17 c-7 -23 -21 -38 -37 -38 -5 0 1 14 13 30 25 36
34 38 24 8z m398 -103 c-9 -15 -20 41 -14 71 6 26 7 25 13 -16 3 -25 4 -49 1
-55z m-35 18 c-3 -10 -5 -4 -5 12 0 17 2 24 5 18 2 -7 2 -21 0 -30z m-297 -3
c0 -5 -2 -10 -4 -10 -3 0 -8 5 -11 10 -3 6 -1 10 4 10 6 0 11 -4 11 -10z m30
-57 c0 -57 -5 -53 -14 11 -5 33 -4 46 3 41 6 -3 11 -27 11 -52z m270 25 c0 7
5 10 10 7 14 -9 1 -27 -15 -21 -8 3 -16 0 -18 -7 -3 -9 -8 -8 -18 2 -9 9 -10
11 -1 7 7 -4 15 0 18 9 6 13 8 14 15 3 7 -10 9 -11 9 0z m-293 -70 c-2 -13 -4
-3 -4 22 0 25 2 35 4 23 2 -13 2 -33 0 -45z m160 56 c-3 -3 -12 -4 -19 -1 -8
3 -5 6 6 6 11 1 17 -2 13 -5z m55 -1 c-6 -2 -10 -9 -7 -13 3 -5 0 -12 -7 -16
-7 -4 -10 -4 -6 1 4 4 3 14 -3 22 -9 10 -6 13 12 12 13 0 18 -3 11 -6z m290
-51 c-8 -25 -9 -23 -8 15 0 28 3 37 9 27 5 -8 4 -27 -1 -42z m-337 28 c-3 -5
-12 -10 -18 -10 -7 0 -6 4 3 10 19 12 23 12 15 0z m311 -23 c-3 -13 -12 -24
-21 -24 -13 0 -13 2 0 17 8 9 15 23 15 30 0 7 3 11 6 7 4 -3 4 -17 0 -30z
m-612 -8 c4 -4 -11 -3 -34 2 -24 5 -48 8 -54 5 -6 -2 -1 -5 12 -5 13 -1 21 -5
18 -10 -4 -5 -18 -5 -36 2 l-30 11 28 12 c26 11 74 3 96 -17z m113 -6 c-3 -10
-5 -4 -5 12 0 17 2 24 5 18 2 -7 2 -21 0 -30z m-20 -5 c-3 -7 -5 -2 -5 12 0
14 2 19 5 13 2 -7 2 -19 0 -25z m210 3 c-9 -25 -8 -33 6 -49 9 -10 17 -24 17
-31 0 -7 6 -11 13 -8 37 15 49 16 24 2 -28 -16 -47 -13 -47 7 0 6 -7 16 -17
23 -21 16 -24 57 -4 72 9 7 17 13 18 13 1 0 -4 -13 -10 -29z m368 -1 c3 -5 1
-10 -4 -10 -6 0 -11 5 -11 10 0 6 2 10 4 10 3 0 8 -4 11 -10z m-485 -99 c0 -3
-4 -1 -9 5 -6 5 -13 29 -16 54 l-5 45 14 -50 c8 -27 15 -52 16 -54z m-386 74
c-4 -8 -15 -15 -25 -15 -10 0 -19 -4 -19 -9 0 -6 15 -7 34 -4 18 3 36 1 39 -4
7 -11 -63 -10 -81 1 -22 13 -27 -3 -6 -19 17 -13 16 -14 -13 -4 -39 13 -35 23
15 39 20 7 41 16 47 21 13 13 15 11 9 -6z m675 -9 c-2 -2 -17 -6 -34 -10 -22
-5 -26 -4 -15 4 14 9 59 15 49 6z m36 -16 c4 -6 -6 -10 -22 -10 -22 0 -25 2
-13 10 19 12 27 12 35 0z m-145 -10 c-20 -13 -33 -13 -25 0 3 6 14 10 23 10
15 0 15 -2 2 -10z m65 -10 c8 -13 -5 -13 -25 0 -13 8 -13 10 2 10 9 0 20 -4
23 -10z m-735 -10 c8 -5 11 -10 5 -10 -5 0 -17 5 -25 10 -8 5 -10 10 -5 10 6
0 17 -5 25 -10z m117 -6 c-3 -3 -12 -4 -19 -1 -8 3 -5 6 6 6 11 1 17 -2 13 -5z
m278 -14 c3 -6 -1 -7 -9 -4 -18 7 -21 14 -7 14 6 0 13 -4 16 -10z m-465 -10
c-8 -5 -22 -9 -30 -9 -10 0 -8 3 5 9 27 12 43 12 25 0z m37 -15 c-9 -8 -21
-15 -27 -15 -7 0 -2 9 11 19 28 22 39 20 16 -4z m383 20 c0 -3 -10 -15 -22
-27 -17 -17 -20 -18 -15 -4 4 10 7 22 7 27 0 5 7 9 15 9 8 0 15 -2 15 -5z
m128 -2 c18 -4 20 -8 10 -14 -18 -12 -31 -11 -23 1 3 6 2 10 -4 10 -16 0 -61
-23 -61 -31 0 -4 -10 -5 -22 -1 -18 4 -14 8 23 23 52 21 48 20 77 12z m-584
-42 c-3 -4 -26 -7 -51 -7 -37 -1 -50 -7 -74 -34 -25 -26 -32 -30 -45 -20 -8 7
-12 16 -8 19 4 3 9 0 11 -7 4 -10 14 -5 37 16 17 17 40 32 51 34 29 6 85 5 79
-1z m466 -11 c0 -5 -5 -10 -11 -10 -5 0 -7 5 -4 10 3 6 8 10 11 10 2 0 4 -4 4
-10z m-423 -6 c-3 -3 -12 -4 -19 -1 -8 3 -5 6 6 6 11 1 17 -2 13 -5z m303 -19
c7 -9 8 -15 2 -15 -5 0 -12 7 -16 15 -3 8 -4 15 -2 15 2 0 9 -7 16 -15z m37
-15 c-12 -15 -28 -36 -35 -46 -7 -11 -5 -4 4 14 8 19 13 39 11 45 -3 7 6 13
19 13 l24 2 -23 -28z m318 10 c-3 -5 -16 -10 -28 -10 -18 0 -19 2 -7 10 20 13
43 13 35 0z m-58 -16 c-3 -3 -12 -4 -19 -1 -8 3 -5 6 6 6 11 1 17 -2 13 -5z
m100 -11 c4 -10 11 -21 17 -25 7 -5 6 -8 -2 -8 -8 0 -16 9 -19 20 -4 15 -9 17
-23 10 -11 -6 -21 -6 -24 -1 -6 9 9 19 32 20 7 1 16 -7 19 -16z m-937 -3 c8
-5 11 -12 8 -16 -4 -3 -14 1 -23 10 -18 17 -9 21 15 6z m98 -10 c-7 -11 -16
-20 -20 -20 -13 0 -9 28 5 33 23 10 27 7 15 -13z m687 9 c-15 -7 -10 -8 20 -4
34 4 37 3 15 -6 -30 -12 -82 -3 -59 12 7 5 21 8 29 8 10 0 9 -3 -5 -10z m-830
-9 c-3 -5 -12 -10 -18 -10 -7 0 -6 4 3 10 19 12 23 12 15 0z m-50 -37 c-11
-21 -12 -29 -2 -35 8 -5 8 -8 1 -8 -6 0 -17 7 -24 15 -8 10 -16 12 -19 6 -4
-6 -12 -6 -20 -2 -9 6 -5 10 14 15 15 4 34 14 42 21 21 22 24 18 8 -12z m680
-3 c3 -5 1 -10 -4 -10 -6 0 -11 5 -11 10 0 6 2 10 4 10 3 0 8 -4 11 -10z m68
3 c-7 -2 -21 -2 -30 0 -10 3 -4 5 12 5 17 0 24 -2 18 -5z m-703 -23 c0 -5 -2
-10 -4 -10 -3 0 -8 5 -11 10 -3 6 -1 10 4 10 6 0 11 -4 11 -10z m725 -6 c17
-13 18 -16 5 -24 -22 -14 -33 -12 -26 5 3 9 0 15 -10 15 -8 0 -12 5 -9 10 8
13 16 12 40 -6z m-835 -9 c0 -2 -6 -5 -13 -8 -8 -3 -14 1 -14 8 0 7 6 11 14 8
7 -3 13 -6 13 -8z m725 5 c-27 -12 -43 -12 -25 0 8 5 22 9 30 9 10 0 8 -3 -5
-9z m-774 -24 c-6 -7 -8 -16 -4 -20 4 -4 0 -4 -10 -1 -13 6 -14 11 -6 26 5 11
14 17 20 13 7 -4 6 -10 0 -18z m79 4 c0 -5 -2 -10 -4 -10 -3 0 -8 5 -11 10 -3
6 -1 10 4 10 6 0 11 -4 11 -10z m757 4 c-3 -3 -12 -4 -19 -1 -8 3 -5 6 6 6 11
1 17 -2 13 -5z m-881 -21 c0 -10 5 -17 12 -15 6 1 12 -2 12 -8 0 -13 -13 -13
-26 0 -15 15 -53 1 -47 -18 4 -14 3 -14 -5 -3 -8 12 -13 11 -31 -1 -11 -8 -18
-17 -16 -20 3 -3 -7 -3 -22 0 -24 5 -25 6 -8 12 36 11 114 50 120 60 9 15 13
12 11 -7z m832 10 c-10 -2 -26 -2 -35 0 -10 3 -2 5 17 5 19 0 27 -2 18 -5z
m-838 -62 c0 -5 -7 -11 -15 -15 -15 -5 -20 5 -8 17 9 10 23 9 23 -2z m43 -5
c4 -10 0 -12 -15 -8 -15 4 -17 7 -6 13 17 11 15 11 21 -5z m-163 -56 c0 -5 -2
-10 -4 -10 -3 0 -8 5 -11 10 -3 6 -1 10 4 10 6 0 11 -4 11 -10z m-45 -9 c3 -5
-11 -7 -31 -6 -48 5 -53 11 -9 13 19 1 37 -3 40 -7z m-70 -19 c-3 -3 -11 0
-18 7 -9 10 -8 11 6 5 10 -3 15 -9 12 -12z m-45 4 c0 -2 -8 -10 -17 -17 -16
-13 -17 -12 -4 4 13 16 21 21 21 13z m93 -13 c-7 -2 -19 -2 -25 0 -7 3 -2 5
12 5 14 0 19 -2 13 -5z m-138 -23 c-3 -5 -11 -10 -16 -10 -6 0 -7 5 -4 10 3 6
11 10 16 10 6 0 7 -4 4 -10z m70 0 c3 -6 -1 -7 -9 -4 -18 7 -21 14 -7 14 6 0
13 -4 16 -10z m-35 -10 c0 -5 -4 -10 -10 -10 -5 0 -10 5 -10 10 0 6 5 10 10
10 6 0 10 -4 10 -10z m-101 -13 c-2 -1 -13 -9 -24 -17 -19 -14 -19 -14 -6 3 7
9 18 17 24 17 6 0 8 -1 6 -3z m121 -7 c-8 -5 -22 -9 -30 -9 -10 0 -8 3 5 9 27
12 43 12 25 0z m-60 -15 l25 -15 -30 6 c-33 7 -58 24 -34 24 7 -1 25 -7 39
-15z m-105 -15 c3 -6 -1 -7 -9 -4 -18 7 -21 14 -7 14 6 0 13 -4 16 -10z m-45
-15 c-7 -8 -20 -15 -28 -15 -13 0 -12 3 4 15 25 19 40 19 24 0z m-60 -43 c0
-4 -16 -15 -35 -24 -41 -18 -43 -16 -13 12 22 20 48 27 48 12z m57 -18 c-3 -3
-12 -4 -19 -1 -8 3 -5 6 6 6 11 1 17 -2 13 -5z m-143 -33 c4 -5 -3 -7 -14 -4
-14 4 -20 0 -20 -11 0 -22 -24 -30 -47 -17 -15 9 -13 10 12 5 21 -4 26 -3 16
4 -11 8 -10 12 5 21 23 13 41 14 48 2z m-94 -41 c8 -5 11 -10 5 -10 -5 0 -17
5 -25 10 -8 5 -10 10 -5 10 6 0 17 -5 25 -10z m-90 -40 c-8 -5 -19 -10 -25
-10 -5 0 -3 5 5 10 8 5 20 10 25 10 6 0 3 -5 -5 -10z m23 -30 c3 -11 1 -18 -4
-14 -5 3 -9 12 -9 20 0 20 7 17 13 -6z m-43 -5 c14 -8 19 -14 10 -14 -8 0 -24
6 -34 14 -25 19 -9 19 24 0z m74 -1 c3 -8 2 -12 -4 -9 -6 3 -10 10 -10 16 0
14 7 11 14 -7z m-240 -80 c-27 -13 -53 -24 -59 -23 -5 0 0 4 13 10 13 5 21 13
17 19 -4 6 1 7 11 3 12 -5 15 -3 9 6 -5 10 -2 11 14 6 13 -4 21 -2 21 5 0 6 5
8 11 4 7 -4 -9 -17 -37 -30z m-81 -37 c3 -8 -3 -14 -14 -14 -21 -2 -26 13 -6
20 6 3 13 6 13 6 1 1 4 -5 7 -12z m-93 -22 c-14 -8 -29 -14 -35 -14 -5 0 1 6
15 14 14 8 30 14 35 14 6 0 -1 -6 -15 -14z m135 5 c-3 -5 -10 -10 -16 -10 -5
0 -9 5 -9 10 0 6 7 10 16 10 8 0 12 -4 9 -10z m-95 -20 c0 -5 6 -7 14 -4 8 3
16 2 19 -3 3 -5 -16 -8 -42 -8 -40 0 -46 2 -32 12 19 15 41 17 41 3z m-99 -43
c-8 -8 -11 -5 -11 9 0 27 14 41 18 19 2 -9 -1 -22 -7 -28z m-81 -32 c27 -15
20 -19 -17 -9 -13 4 -23 10 -23 15 0 12 11 11 40 -6z"/>
<path d="M2440 3136 c-6 -8 -10 -25 -8 -38 2 -17 10 -24 34 -26 41 -4 61 19
46 53 -13 28 -52 34 -72 11z"/>
<path d="M4795 2660 c3 -5 8 -10 11 -10 2 0 4 5 4 10 0 6 -5 10 -11 10 -5 0
-7 -4 -4 -10z"/>
<path d="M4445 2520 c3 -5 10 -10 16 -10 5 0 9 5 9 10 0 6 -7 10 -16 10 -8 0
-12 -4 -9 -10z"/>
<path d="M2530 1710 c0 -5 4 -10 9 -10 6 0 13 5 16 10 3 6 -1 10 -9 10 -9 0
-16 -4 -16 -10z"/>
</g>
</svg>
